<svg xmlns="http://www.w3.org/2000/svg" width="20.862" height="18.442" viewBox="0 0 20.862 18.442">
  <g id="briefcase" transform="translate(0.15 0.15)">
    <path id="Path_7517" data-name="Path 7517" d="M19.96,33.754H14.513v-1.2a2.435,2.435,0,0,0-2.432-2.432h-3.6a2.435,2.435,0,0,0-2.432,2.432v1.2H.6a.6.6,0,0,0-.6.6V45.3a2.97,2.97,0,0,0,2.967,2.967H17.6A2.97,2.97,0,0,0,20.562,45.3V34.357A.6.6,0,0,0,19.96,33.754Zm-8.312,7.861a1.367,1.367,0,1,1-2.734,0V40.249h2.734Zm.6-2.572H8.312a.6.6,0,0,0-.6.6v1.094c-3.5-.76-6.129-3.032-6.467-5.782H19.32c-.338,2.749-2.964,5.021-6.467,5.782V39.647A.6.6,0,0,0,12.25,39.044Zm-5-6.487A1.229,1.229,0,0,1,8.481,31.33h3.6a1.229,1.229,0,0,1,1.228,1.228v1.2H7.254v-1.2ZM19.357,45.3A1.764,1.764,0,0,1,17.6,47.062H2.967A1.764,1.764,0,0,1,1.2,45.3V38.066a8.456,8.456,0,0,0,1.871,1.906,11.349,11.349,0,0,0,4.659,2.005,2.571,2.571,0,0,0,5.092,0,11.349,11.349,0,0,0,4.659-2.005,8.457,8.457,0,0,0,1.871-1.906Z" transform="translate(0 -30.125)" fill="#1f1f1f" stroke="#1f1f1f" stroke-width="0.3"/>
  </g>
</svg>
