<svg id="luggage" xmlns="http://www.w3.org/2000/svg" width="23.54" height="18.652" viewBox="0 0 23.54 18.652">
  <g id="Group_8146" data-name="Group 8146" transform="translate(0 0)">
    <path id="Path_7522" data-name="Path 7522" d="M21.024,56.514H15.866V53.9a.74.74,0,0,0-.74-.74H8.415a.74.74,0,0,0-.74.74v2.609H2.517A2.52,2.52,0,0,0,0,59.031V69.3a2.52,2.52,0,0,0,2.517,2.517H21.024A2.52,2.52,0,0,0,23.54,69.3V59.031A2.52,2.52,0,0,0,21.024,56.514ZM9.156,54.645h5.229v1.869H9.156ZM4.094,70.335H2.517A1.037,1.037,0,0,1,1.481,69.3V59.031a1.037,1.037,0,0,1,1.036-1.036H4.094Zm13.871,0H5.575V57.995h12.39v12.34ZM22.06,69.3a1.037,1.037,0,0,1-1.036,1.036H19.446V57.995h1.578a1.037,1.037,0,0,1,1.036,1.036Z" transform="translate(0 -53.164)" fill="#1f1f1f"/>
  </g>
</svg>
