<svg xmlns="http://www.w3.org/2000/svg" width="17.266" height="17.633" viewBox="0 0 17.266 17.633"><defs><style>.a{fill:#ACACAC;}</style></defs><g transform="translate(-0.367 -0.367)"><path class="a" d="M15,3A8.152,8.152,0,0,0,3,3,8.154,8.154,0,0,0,3,15c1.756,1.755,3.694,3,6,3s4.244-1.245,6-3A8.152,8.152,0,0,0,15,3Zm-2,9a.678.678,0,0,1,0,1c-.146.146-.808,0-1,0s.146.146,0,0L9,10,6,13c-.147.146.191,0,0,0s-.854.146-1,0a.678.678,0,0,1,0-1L8,9,5,6A.707.707,0,0,1,6,5L9,8l3-3a.707.707,0,0,1,1,1L10,9Z" transform="translate(0 -0.005)"/></g></svg>