<svg xmlns="http://www.w3.org/2000/svg" viewBox="0 0 99.71 99.71"><defs><style>.cls-1{fill:#4d4d4d;}.cls-2{fill:#fff;}</style></defs><title>crossAsset 3</title><g id="Layer_2" data-name="Layer 2"><g id="Layer_1-2" data-name="Layer 1"><circle class="cls-1" cx="49.85" cy="49.85" r="49.85"/><path class="cls-2" d="M46.57,11.19h2a4.55,4.55,0,0,1,4.55,4.55V88.52a0,0,0,0,1,0,0h-2A4.55,4.55,0,0,1,46.57,84V11.19A0,0,0,0,1,46.57,11.19Z" transform="translate(45.07 -20.49) rotate(41.11)"/><path class="cls-2" d="M50.15,11.19h3a0,0,0,0,1,0,0V84.64a3.88,3.88,0,0,1-3.88,3.88H46.58a0,0,0,0,1,0,0V14.77a3.58,3.58,0,0,1,3.58-3.58Z" transform="translate(-20.65 49.72) rotate(-44.89)"/></g></g></svg>