<svg xmlns="http://www.w3.org/2000/svg" width="32" height="25.013" viewBox="0 0 32 25.013"><defs><style>.a{fill:#ffffff;}</style></defs><g transform="translate(-864.421 -1480.938)"><circle class="a" cx="9.012" cy="9.012" r="9.012" transform="translate(871.409 1487.926)"/><path class="a" d="M869.812,1497.438H864.92a.5.5,0,0,1,0-1h4.892a.5.5,0,0,1,0,1Z"/><path class="a" d="M895.922,1497.438h-4.891a.5.5,0,1,1,0-1h4.891a.5.5,0,0,1,0,1Z"/><path class="a" d="M880.421,1486.828a.5.5,0,0,1-.5-.5v-4.891a.5.5,0,1,1,1,0v4.891A.5.5,0,0,1,880.421,1486.828Z"/><path class="a" d="M887.923,1489.936a.5.5,0,0,1-.353-.853l1.729-1.729a.5.5,0,0,1,.707.706l-1.73,1.729A.5.5,0,0,1,887.923,1489.936Z"/><path class="a" d="M872.919,1489.936a.5.5,0,0,1-.353-.147l-1.729-1.729a.5.5,0,0,1,.706-.706l1.729,1.729a.5.5,0,0,1-.353.853Z"/><path class="a" d="M877.663,1487.193a.5.5,0,0,1-.481-.37l-.636-2.361a.5.5,0,1,1,.964-.26l.636,2.362a.5.5,0,0,1-.352.612A.542.542,0,0,1,877.663,1487.193Z"/><path class="a" d="M883.157,1487.187a.488.488,0,0,1-.129-.017.5.5,0,0,1-.353-.611l.63-2.363a.5.5,0,1,1,.965.258l-.63,2.362A.5.5,0,0,1,883.157,1487.187Z"/><path class="a" d="M890.685,1494.754a.5.5,0,0,1-.126-.982l2.366-.619a.5.5,0,0,1,.253.967l-2.366.618A.5.5,0,0,1,890.685,1494.754Z"/><path class="a" d="M870.167,1494.715a.518.518,0,0,1-.128-.017l-2.364-.628a.5.5,0,1,1,.257-.965l2.363.628a.5.5,0,0,1-.128.982Z"/><path class="a" d="M871.2,1492.187a.5.5,0,0,1-.246-.065l-4.25-2.421a.5.5,0,0,1,.494-.868l4.25,2.421a.5.5,0,0,1-.248.933Z"/><path class="a" d="M875.1,1488.257a.5.5,0,0,1-.433-.25l-2.451-4.232a.5.5,0,1,1,.865-.5l2.451,4.233a.5.5,0,0,1-.432.75Z"/><path class="a" d="M885.749,1488.263a.5.5,0,0,1-.431-.75l2.456-4.229a.5.5,0,0,1,.864.5l-2.457,4.23A.5.5,0,0,1,885.749,1488.263Z"/><path class="a" d="M889.648,1492.2a.5.5,0,0,1-.247-.934l4.253-2.415a.5.5,0,1,1,.493.869l-4.253,2.415A.5.5,0,0,1,889.648,1492.2Z"/></g></svg>