<svg xmlns="http://www.w3.org/2000/svg" width="32" height="18.708" viewBox="0 0 32 18.708"><defs><style>.a{fill:#bdbdbd;}</style></defs><g transform="translate(-2310.722 -391.446)"><path class="a" d="M2342.061,413.511h-4.712a10.319,10.319,0,0,0-20.583,0h-4.525a.572.572,0,0,0,0,1.144h29.82a.572.572,0,0,0,0-1.144Z" transform="translate(-0.341 -4.5)"/><path class="a" d="M2335.392,398.19a.572.572,0,0,0,.572-.572v-5.6a.572.572,0,0,0-1.144,0v5.6A.572.572,0,0,0,2335.392,398.19Z" transform="translate(-8.675)"/><path class="a" d="M2348.409,405.618a.573.573,0,0,0,.809,0l1.98-1.98a.572.572,0,1,0-.809-.808l-1.98,1.98A.572.572,0,0,0,2348.409,405.618Z" transform="translate(-13.507 -4.038)"/><path class="a" d="M2320.452,405.618a.572.572,0,1,0,.809-.809l-1.98-1.98a.572.572,0,1,0-.809.808Z" transform="translate(-2.729 -4.038)"/><path class="a" d="M2329.5,400.048a.572.572,0,1,0,1.1-.3l-.728-2.7a.572.572,0,1,0-1.1.3Z" transform="translate(-6.49 -1.864)"/><path class="a" d="M2340.139,400.441a.59.59,0,0,0,.148.019.572.572,0,0,0,.552-.424l.722-2.705a.572.572,0,1,0-1.1-.3l-.722,2.705A.572.572,0,0,0,2340.139,400.441Z" transform="translate(-10.437 -1.859)"/><path class="a" d="M2353.755,415.121a.562.562,0,0,0,.145-.019l2.709-.708a.572.572,0,1,0-.289-1.107l-2.709.708a.572.572,0,0,0,.145,1.124Z" transform="translate(-15.286 -7.857)"/><path class="a" d="M2312.965,413.2a.572.572,0,0,0-.294,1.105l2.707.719a.555.555,0,0,0,.147.019.572.572,0,0,0,.147-1.124Z" transform="translate(-0.548 -7.825)"/><path class="a" d="M2316.16,409.369a.572.572,0,0,0,.284-1.069l-4.867-2.771a.572.572,0,0,0-.566.993l4.867,2.772A.572.572,0,0,0,2316.16,409.369Z" transform="translate(0 -5.043)"/><path class="a" d="M2323.807,400.883a.572.572,0,1,0,.99-.573l-2.806-4.846a.572.572,0,1,0-.99.573Z" transform="translate(-3.672 -1.344)"/><path class="a" d="M2344.638,401.106a.571.571,0,0,0,.781-.207l2.812-4.843a.572.572,0,0,0-.989-.575l-2.812,4.843A.572.572,0,0,0,2344.638,401.106Z" transform="translate(-12.107 -1.35)"/><path class="a" d="M2357.265,405.774a.572.572,0,0,0-.78-.215l-4.87,2.765a.572.572,0,1,0,.564.994l4.87-2.765A.573.573,0,0,0,2357.265,405.774Z" transform="translate(-14.617 -5.054)"/></g></svg>