<svg xmlns="http://www.w3.org/2000/svg" width="28.595" height="25.622" viewBox="0 0 28.595 25.622"><defs><style>.a{fill:#898d92;}</style></defs><path class="a" d="M5.653,52.786a4.9,4.9,0,0,1-1.272-.169,4.842,4.842,0,0,1-2.958-2.273l-1.3-2.228a.934.934,0,1,1,1.614-.939l1.3,2.231a3.006,3.006,0,0,0,4.107,1.106l14.728-8.49a.342.342,0,0,0,.163-.285.321.321,0,0,0-.129-.285,2.455,2.455,0,0,0-2.824-.158l-3.412,2.018a.933.933,0,0,1-1.037-.058L9.9,39.691a4.078,4.078,0,0,0-1.933-.821.462.462,0,0,0-.431.222.415.415,0,0,0-.028.394l3.054,3.78a.93.93,0,0,1,.083.12,2.345,2.345,0,0,1-.855,3.2L5.844,48.917a.934.934,0,0,1-.95-1.608l3.948-2.334.009-.005a.478.478,0,0,0,.2-.6L6,40.587a.937.937,0,0,1-.083-.12,2.27,2.27,0,0,1,.029-2.351A2.34,2.34,0,0,1,8.062,37a5.774,5.774,0,0,1,2.909,1.157l.034.025,4.254,3.2,2.879-1.7.009-.005a4.3,4.3,0,0,1,4.835.246,2.219,2.219,0,0,1-.175,3.716L8.079,52.133a4.845,4.845,0,0,1-2.426.653Z" transform="translate(26.393 -32.044) rotate(30)"/></svg>