<svg xmlns="http://www.w3.org/2000/svg" width="41.454" height="37.145" viewBox="0 0 41.454 37.145"><defs><style>.a{fill:#474747;}</style></defs><path class="a" d="M8.2,59.885a7.1,7.1,0,0,1-1.844-.245,7.019,7.019,0,0,1-4.288-3.295L.184,53.115a1.354,1.354,0,1,1,2.34-1.362l1.882,3.235a4.358,4.358,0,0,0,5.954,1.6L31.711,44.284a.5.5,0,0,0,.236-.414.465.465,0,0,0-.186-.413,3.56,3.56,0,0,0-4.094-.23l-4.946,2.925a1.353,1.353,0,0,1-1.5-.084L14.352,40.9a5.912,5.912,0,0,0-2.8-1.191.669.669,0,0,0-.625.321.6.6,0,0,0-.041.571l4.427,5.48a1.347,1.347,0,0,1,.12.175,3.4,3.4,0,0,1-1.24,4.639l-5.718,3.38a1.354,1.354,0,0,1-1.378-2.331l5.723-3.384.013-.007a.692.692,0,0,0,.289-.875L8.694,42.2a1.358,1.358,0,0,1-.12-.175,3.291,3.291,0,0,1,.042-3.408,3.392,3.392,0,0,1,3.073-1.611,8.371,8.371,0,0,1,4.217,1.677l.05.036,6.167,4.643L26.3,40.894l.013-.008a6.229,6.229,0,0,1,7.009.357,3.217,3.217,0,0,1-.254,5.387L11.713,58.937a7.024,7.024,0,0,1-3.517.947Z" transform="translate(29.943 -32.044) rotate(30)"/></svg>