<svg xmlns="http://www.w3.org/2000/svg" width="39.323" height="35.235" viewBox="0 0 39.323 35.235"><defs><style>.a{fill:#2139ac;}</style></defs><path class="a" d="M7.774,58.708a6.737,6.737,0,0,1-1.75-.232,6.658,6.658,0,0,1-4.067-3.125L.174,52.286a1.284,1.284,0,1,1,2.22-1.292l1.785,3.069a4.134,4.134,0,0,0,5.648,1.521L30.081,43.91a.47.47,0,0,0,.224-.392.441.441,0,0,0-.177-.392,3.377,3.377,0,0,0-3.883-.218l-4.692,2.775a1.284,1.284,0,0,1-1.426-.079l-6.513-4.9a5.608,5.608,0,0,0-2.658-1.13.635.635,0,0,0-.593.3.571.571,0,0,0-.039.541l4.2,5.2a1.278,1.278,0,0,1,.114.166,3.225,3.225,0,0,1-1.176,4.4L8.037,53.388A1.284,1.284,0,0,1,6.73,51.177l5.429-3.21.012-.007a.657.657,0,0,0,.275-.83l-4.2-5.2a1.289,1.289,0,0,1-.114-.166,3.121,3.121,0,0,1,.04-3.233,3.217,3.217,0,0,1,2.915-1.528,7.94,7.94,0,0,1,4,1.591l.047.034,5.85,4.4,3.959-2.342.012-.007a5.908,5.908,0,0,1,6.649.338,3.052,3.052,0,0,1-.241,5.11L11.11,57.81a6.663,6.663,0,0,1-3.336.9Z" transform="translate(29.354 -32.044) rotate(30)"/></svg>