<svg xmlns="http://www.w3.org/2000/svg" width="20.208" height="14.595" viewBox="0 0 20.208 14.595"><defs><style>.a{fill:#393939;}</style></defs><path class="a" d="M19.366,124.352H.842a.842.842,0,1,1,0-1.684H19.366a.842.842,0,1,1,0,1.684Zm0,0" transform="translate(0 -116.213)"/><path class="a" d="M19.366,1.684H.842A.842.842,0,0,1,.842,0H19.366a.842.842,0,1,1,0,1.684Zm0,0"/><path class="a" d="M19.366,247.016H.842a.842.842,0,0,1,0-1.684H19.366a.842.842,0,0,1,0,1.684Zm0,0" transform="translate(0 -232.421)"/></svg>