<svg xmlns="http://www.w3.org/2000/svg" width="107.422" height="103" viewBox="0 0 107.422 103"><defs><style>.a{fill:#505050;}.b{fill:#fb3d4e;}</style></defs><g transform="translate(-901.513 -537.95)"><path class="a" d="M1461.739,1184.7a20.779,20.779,0,0,0,1.979,4.807q.264.53.544,1.1c.1.206.41.834,2.91,5.258a1.942,1.942,0,0,0,3.381-1.91c-2.127-3.765-2.671-4.786-2.806-5.06-.191-.388-.375-.759-.554-1.117-.578-1.16-1.078-2.162-1.384-2.969a3.507,3.507,0,0,1-.293-1.138,1.115,1.115,0,0,1,.136-.078c.011,0,1.188-.347,5.019,2.812a82.491,82.491,0,0,1,8.574,8.572,1.941,1.941,0,1,0,2.9-2.581,85.159,85.159,0,0,0-9.139-9.1c-2.516-2.056-6.194-4.622-9.084-3.183A3.917,3.917,0,0,0,1461.739,1184.7Z" transform="translate(-532.734 -610.368)"/><path class="a" d="M1008.527,1436.058a10.96,10.96,0,0,0-3.918-4.778,33.264,33.264,0,0,0-6.837-3.915,47.294,47.294,0,0,0-18.242-3.985q-1.306,0-2.693.016h-.028c-16.912.2-41.951,2.116-52.324,2.965a11.485,11.485,0,0,1-8.529-2.874,38.839,38.839,0,0,0-6.362-4.633c-2.522-1.4-4.5-1.82-6.055-1.291a2.891,2.891,0,0,0-1.794,1.748c-.533,1.407-.161,3.387,1.2,6.419.487,1.082,1.039,2.156,1.533,3.071l-1.625.63a1.941,1.941,0,0,0-1.24,1.81v5.762a1.941,1.941,0,0,0,1.374,1.857c.174.053,4.353,1.321,11.815,2.84a252.349,252.349,0,0,0,28.765,4.059c-4.8,8-10.35,17.3-12.046,20.75q-.279.567-.544,1.1a20.788,20.788,0,0,0-1.979,4.807,3.918,3.918,0,0,0,2.184,4.587,3.321,3.321,0,0,0,1.5.343,7.277,7.277,0,0,0,3.5-1.2,34.968,34.968,0,0,0,5.206-4,169.972,169.972,0,0,0,12.53-12.862c4.241-4.733,8.337-9.581,11.375-13.249h17.357c7.79,0,13.844-.446,17.992-1.326,3.828-.812,6.178-1.983,7.394-3.687A5.291,5.291,0,0,0,1008.527,1436.058Zm-12.313-5.136c.958.42,1.837.849,2.637,1.279-9.277,1.479-14.149-.108-16.658-1.858a8.288,8.288,0,0,1-2.72-3.08h.057A43.274,43.274,0,0,1,996.214,1430.922Zm8.67,7.841c-.272.381-1.308,1.354-5.04,2.145-3.884.824-9.666,1.241-17.186,1.241h-14.17c1.144-1.408,1.814-2.249,1.836-2.277a1.941,1.941,0,1,0-3.039-2.417c-.073.092-7.374,9.258-15.414,18.3-4.7,5.284-8.722,9.486-11.957,12.489a45,45,0,0,1-4.8,3.983,6.98,6.98,0,0,1-2.336,1.224,3.517,3.517,0,0,1,.293-1.137c.306-.807.806-1.809,1.384-2.969.179-.358.364-.729.554-1.117,1.741-3.542,7.91-13.828,12.866-22.092,1.6-2.664,3.107-5.18,4.274-7.149a1.941,1.941,0,1,0-3.34-1.98c-.852,1.437-1.889,3.171-3.011,5.042a249.8,249.8,0,0,1-30.151-4.134c-4.876-.991-8.36-1.885-10.15-2.373v-2.966l2.466-.956a1.941,1.941,0,0,0,.984-2.773c-.493-.862-1.517-2.657-2.344-4.449a15.438,15.438,0,0,1-1.137-3.092,9.1,9.1,0,0,1,2.279.97,35.183,35.183,0,0,1,5.655,4.143,15.717,15.717,0,0,0,5.3,3.06,15.045,15.045,0,0,0,6.1.757c10.021-.821,33.784-2.643,50.513-2.93a11.4,11.4,0,0,0,.74,1.8,12.133,12.133,0,0,0,3.917,4.425,18.767,18.767,0,0,0,9.034,3q1.458.141,3.055.141a53.282,53.282,0,0,0,11.283-1.375,5.617,5.617,0,0,1,1.51,2.022C1005.173,1438.247,1005.056,1438.522,1004.884,1438.763Z" transform="translate(0 -836.396)"/><path class="a" d="M1106.733,2101.521h-12.943a1.942,1.942,0,0,0,0,3.883h12.943a1.942,1.942,0,0,0,0-3.883Z" transform="translate(-181.029 -1487.12)"/><path class="a" d="M2169.44,2339.757h-16.826a1.941,1.941,0,0,0,0,3.883h16.826a1.941,1.941,0,0,0,0-3.883Z" transform="translate(-1188.081 -1713.707)"/><path class="a" d="M995.674,2286.815h-7.766a1.941,1.941,0,1,0,0,3.883h7.766a1.941,1.941,0,1,0,0-3.883Z" transform="translate(-80.324 -1663.353)"/><path class="a" d="M1780.084,1150.522a1.941,1.941,0,0,0,1.941,1.941h5.177a1.941,1.941,0,1,0,0-3.883h-5.177A1.942,1.942,0,0,0,1780.084,1150.522Z" transform="translate(-835.613 -580.774)"/><path class="a" d="M1173.2,1307.4a1.941,1.941,0,0,0,0,3.883h5.177a1.941,1.941,0,0,0,0-3.883Z" transform="translate(-256.558 -731.831)"/><path class="a" d="M1601.922,914.228h11.649a1.941,1.941,0,1,0,0-3.883h-11.649a1.941,1.941,0,1,0,0,3.883Z" transform="translate(-664.315 -354.187)"/><path class="a" d="M2508.38,2154.463h-11.649a1.941,1.941,0,0,0,0,3.883h11.649a1.941,1.941,0,0,0,0-3.883Z" transform="translate(-1515.373 -1537.472)"/><path class="a" d="M1703.261,1746.375h-.647a1.941,1.941,0,0,0,0,3.883h.647a1.941,1.941,0,1,0,0-3.883Z" transform="translate(-760.084 -1149.339)"/><path class="a" d="M1570.909,1746.375h-.647a1.941,1.941,0,1,0,0,3.883h.647a1.941,1.941,0,0,0,0-3.883Z" transform="translate(-634.203 -1149.339)"/><path class="a" d="M1438.556,1746.375h-.647a1.941,1.941,0,0,0,0,3.883h.647a1.941,1.941,0,1,0,0-3.883Z" transform="translate(-508.322 -1149.339)"/><path class="a" d="M973.809,848.974h15.309a5.237,5.237,0,0,0,.056-10.473,7.919,7.919,0,0,0-14.561-1.073,5.6,5.6,0,0,0-.8-.058,5.8,5.8,0,0,0,0,11.6Zm0-7.721a1.882,1.882,0,0,1,.984.287,1.941,1.941,0,0,0,2.91-1.286,4.038,4.038,0,0,1,8,.629,1.941,1.941,0,0,0,2.815,1.657,1.317,1.317,0,0,1,.6-.155,1.354,1.354,0,1,1,0,2.708H973.809a1.919,1.919,0,1,1,0-3.838Z" transform="translate(-63.242 -280.724)"/><path class="b" d="M2011.852,571.132a19.425,19.425,0,0,0,26.048,1.305l.479.479a4.091,4.091,0,0,0-.168,1.566l.058.678a10.324,10.324,0,0,0,2.981,6.4l5.156,5.156a6.038,6.038,0,0,0,4.263,1.765c.094,0,.19,0,.285-.007a6.051,6.051,0,0,0,4.367-2.191,5.886,5.886,0,0,0,1.316-4.242,6.327,6.327,0,0,0-1.834-3.969h0l-4.412-4.412a12.5,12.5,0,0,0-7.461-3.576l-.2-.022a4.092,4.092,0,0,0-1.575.135l-.508-.508a19.448,19.448,0,1,0-28.794,1.44Zm35.794,5.276,4.412,4.412a2.256,2.256,0,0,1,.27,2.992,2.143,2.143,0,0,1-3.175.161L2044,578.817a6.436,6.436,0,0,1-1.858-3.991l-.059-.678a.208.208,0,0,1,.2-.225l.027,0,.2.022A8.6,8.6,0,0,1,2047.646,576.408ZM2014.6,546.389a15.572,15.572,0,0,1,22,0h0a15.555,15.555,0,1,1-22,0Z" transform="translate(-1050.633 0)"/><path class="b" d="M2386.855,676.4a9.033,9.033,0,0,1,5.53,2.6,1.941,1.941,0,1,0,2.746-2.746,12.926,12.926,0,0,0-7.912-3.723,1.941,1.941,0,0,0-.364,3.866Z" transform="translate(-1411.042 -127.992)"/></g></svg>