<svg xmlns="http://www.w3.org/2000/svg" width="44.019" height="51.693" viewBox="0 0 44.019 51.693"><defs><style>.a{fill:#fff;}.b{fill:#fff;}</style></defs><g transform="translate(0 0.001)"><path class="a" d="M43.968,14.025l0-.04c-.023-.5-.037-1.022-.047-1.606a5.479,5.479,0,0,0-5.159-5.367A21.259,21.259,0,0,1,24.292.912L24.258.88a3.308,3.308,0,0,0-4.5,0l-.034.032a21.261,21.261,0,0,1-14.469,6.1A5.478,5.478,0,0,0,.1,12.378c-.009.581-.024,1.106-.047,1.606l0,.093c-.116,6.061-.259,13.6,2.264,20.449a26.031,26.031,0,0,0,6.245,9.727,32.669,32.669,0,0,0,12.221,7.229,3.786,3.786,0,0,0,.5.136,3.7,3.7,0,0,0,1.454,0,3.8,3.8,0,0,0,.5-.137A32.69,32.69,0,0,0,35.448,44.25a26.068,26.068,0,0,0,6.245-9.73C44.226,27.653,44.083,20.1,43.968,14.025ZM38.848,33.47c-2.661,7.216-8.094,12.171-16.608,15.149a.762.762,0,0,1-.1.026.681.681,0,0,1-.267,0,.756.756,0,0,1-.1-.026c-8.523-2.972-13.96-7.925-16.619-15.141C2.837,27.168,2.968,20.244,3.085,14.136V14.1c.024-.525.039-1.075.048-1.679A2.435,2.435,0,0,1,5.428,10.04a26.613,26.613,0,0,0,9.033-1.987,23.633,23.633,0,0,0,7.361-4.946.28.28,0,0,1,.375,0,23.642,23.642,0,0,0,7.361,4.946,26.614,26.614,0,0,0,9.033,1.987,2.434,2.434,0,0,1,2.295,2.384c.009.607.025,1.157.048,1.678C41.052,20.217,41.18,27.146,38.848,33.47Zm0,0" transform="translate(0 0)"/><path class="b" d="M103.281,128.41a12.883,12.883,0,1,0,12.883,12.883A12.9,12.9,0,0,0,103.281,128.41Zm0,22.732a9.849,9.849,0,1,1,9.849-9.849A9.86,9.86,0,0,1,103.281,151.142Zm0,0" transform="translate(-81.271 -115.446)"/><path class="b" d="M163.869,212.436l-5.984,5.984-1.624-1.624a1.517,1.517,0,0,0-2.145,2.145l2.7,2.7a1.517,1.517,0,0,0,2.145,0l7.056-7.056a1.517,1.517,0,0,0-2.145-2.145Zm0,0" transform="translate(-138.157 -190.589)"/></g></svg>