<svg xmlns="http://www.w3.org/2000/svg" width="97" height="97" viewBox="0 0 97 97"><defs><style>.a{fill:#eef1ff;}.b,.c{fill:#4863db;stroke:#4863db;}.b{stroke-width:1.4px;}.d{fill:#fb3d4e;}</style></defs><g transform="translate(-917 -371)"><circle class="a" cx="48.5" cy="48.5" r="48.5" transform="translate(917 371)"/><g transform="translate(512.518 55.376)"><path class="b" d="M820.191,531.235a1.168,1.168,0,0,0-1.167-1.168h-13.79V513.926a1.167,1.167,0,1,0-2.334,0v17.295a1.167,1.167,0,0,0,1.167,1.168c.027,0,.051-.014.078-.016a1.063,1.063,0,0,0,.147.03h14.732A1.167,1.167,0,0,0,820.191,531.235Z" transform="translate(-353.675 -164.986)"/><path class="c" d="M632.4,445.843a26.062,26.062,0,1,0-26.063,26.064A26.093,26.093,0,0,0,632.4,445.843Zm-49.614,0a23.551,23.551,0,1,1,23.551,23.551A23.577,23.577,0,0,1,582.79,445.843Z" transform="translate(-153.13 -82.874)"/><path class="d" d="M863.189,362.969a35.385,35.385,0,0,0-35.344-35.345,1.257,1.257,0,0,0,0,2.513,32.817,32.817,0,0,1,2.588,65.532l1.647-2.233a1.255,1.255,0,1,0-2.021-1.491l-3.191,4.324c-.02.028-.024.062-.042.091s-.053.068-.071.107a1.178,1.178,0,0,0,.345,1.574l3.452,4.136a1.256,1.256,0,0,0,1.928-1.611l-1.992-2.387A35.367,35.367,0,0,0,863.189,362.969Z" transform="translate(-374.634)"/><path class="d" d="M667.471,967.447c-.949-.415-1.9-.885-2.813-1.394a1.07,1.07,0,1,0-1.039,1.872c.975.542,1.983,1.04,2.993,1.482a1.057,1.057,0,0,0,.429.091,1.071,1.071,0,0,0,.43-2.051Z" transform="translate(-227.582 -574.01)"/><path class="d" d="M577.225,896.444a1.071,1.071,0,0,0-1.59,1.435c.745.825,1.536,1.623,2.352,2.373a1.07,1.07,0,0,0,1.447-1.578C578.667,897.97,577.924,897.22,577.225,896.444Z" transform="translate(-148.706 -511.217)"/><path class="d" d="M517,802.329a1.071,1.071,0,1,0-1.968.843c.438,1.023.928,2.035,1.456,3a1.07,1.07,0,0,0,1.88-1.023C517.875,804.242,517.415,803.292,517,802.329Z" transform="translate(-94.379 -426.314)"/><path class="d" d="M530.2,479.335c-.618.925-1.2,1.887-1.724,2.863a1.071,1.071,0,0,0,1.885,1.016c.494-.916,1.038-1.821,1.618-2.689a1.071,1.071,0,1,0-1.78-1.19Z" transform="translate(-106.425 -136.004)"/><path class="d" d="M530.2,479.335c-.618.925-1.2,1.887-1.724,2.863a1.071,1.071,0,0,0,1.885,1.016c.494-.916,1.038-1.821,1.618-2.689a1.071,1.071,0,1,0-1.78-1.19Z" transform="matrix(0.788, -0.616, 0.616, 0.788, -294.673, 313.83)"/><path class="d" d="M598.13,401.345a1.066,1.066,0,0,0,.727-.285c.766-.709,1.574-1.389,2.4-2.021a1.071,1.071,0,0,0-1.3-1.7c-.88.673-1.74,1.4-2.555,2.152a1.07,1.07,0,0,0,.727,1.856Z" transform="translate(-168.221 -62.495)"/><path class="d" d="M598.13,401.345a1.066,1.066,0,0,0,.727-.285c.766-.709,1.574-1.389,2.4-2.021a1.071,1.071,0,0,0-1.3-1.7c-.88.673-1.74,1.4-2.555,2.152a1.07,1.07,0,0,0,.727,1.856Z" transform="matrix(0.788, -0.616, 0.616, 0.788, -298.112, 409.801)"/><path class="d" d="M691.758,347.927a1.063,1.063,0,0,0,.433-.093c.951-.42,1.935-.8,2.926-1.131a1.071,1.071,0,0,0-.677-2.031c-1.054.351-2.1.757-3.116,1.205a1.071,1.071,0,0,0,.434,2.05Z" transform="translate(-252.418 -15.282)"/></g></g></svg>