<svg xmlns="http://www.w3.org/2000/svg" width="53.977" height="53.977" viewBox="0 0 53.977 53.977"><defs><style>.a{fill:#025cb5;}.b{fill:#025cb5;}</style></defs><path class="a" d="M52.4,18.632H47.14a20.214,20.214,0,0,0-40.3,0H1.581A1.581,1.581,0,0,0,0,20.213V37.151a1.581,1.581,0,0,0,1.581,1.581H8.357a1.581,1.581,0,0,0,1.581-1.581V20.213a17.051,17.051,0,1,1,34.1,0V37.151A10.287,10.287,0,0,1,33.764,47.427H31.7a4.969,4.969,0,1,0,0,3.163h2.066A13.457,13.457,0,0,0,47.108,38.733H52.4a1.581,1.581,0,0,0,1.581-1.581V20.213A1.581,1.581,0,0,0,52.4,18.632ZM6.775,35.57H3.163V21.795H6.775ZM26.989,50.814a1.806,1.806,0,1,1,1.806-1.806A1.808,1.808,0,0,1,26.989,50.814ZM50.814,35.57H47.2V21.795h3.613Z" transform="translate(0)"/><path class="b" d="M274.78,176.842a1.436,1.436,0,0,0-1.565.311l-6.612,6.609a5.2,5.2,0,0,0-1.5,3.64,1.437,1.437,0,0,0,1.437,1.437h6.257v3.18a1.437,1.437,0,1,0,2.873,0v-3.18h.1a1.437,1.437,0,1,0,0-2.873h-.1v-7.8A1.437,1.437,0,0,0,274.78,176.842Zm-1.986,9.123h-4.313a2.271,2.271,0,0,1,.156-.174l4.157-4.155Z" transform="translate(-238.217 -157.263)"/><path class="b" d="M139.1,192.019a1.437,1.437,0,0,0-1.437-1.437h-5.749a2.235,2.235,0,0,1,.156-.174l6.609-6.606a1.437,1.437,0,0,0,.421-1.016v-.769a5.284,5.284,0,0,0-10.567,0v0a1.437,1.437,0,1,0,2.873,0,2.41,2.41,0,0,1,4.821,0v.174l-6.191,6.188a5.2,5.2,0,0,0-1.5,3.64,1.437,1.437,0,0,0,1.437,1.437h7.694a1.437,1.437,0,0,0,1.437-1.437Z" transform="translate(-113.64 -157.264)"/></svg>