<svg xmlns="http://www.w3.org/2000/svg" width="54.746" height="54.411" viewBox="0 0 54.746 54.411"><defs><style>.a,.c{fill:#fff;}.b{fill:#fff;}.c{stroke:#71b1ea;stroke-width:0.7px;}</style></defs><g transform="translate(0.434)"><path class="a" d="M220.524,331.994a1.055,1.055,0,1,0-1.491,0A1.056,1.056,0,0,0,220.524,331.994Zm0,0" transform="translate(-195.719 -295.383)"/><path class="b" d="M188.449,11.593A11.593,11.593,0,1,0,200.042,0,11.607,11.607,0,0,0,188.449,11.593Zm21.079,0a9.486,9.486,0,1,1-9.486-9.485A9.5,9.5,0,0,1,209.528,11.593Zm0,0" transform="translate(-168.635)"/><path class="c" d="M12.641,243.6a1.054,1.054,0,0,0,1.487.009l5.11-5.034a3.185,3.185,0,0,0,.75-3.271l1.1-1.06a3.143,3.143,0,0,1,2.195-.887H37.293a9.436,9.436,0,0,0,6.616-2.688c.073-.071-.556.67,9.559-11.419a4.216,4.216,0,0,0-6.415-5.472l-6.219,6.392a4.236,4.236,0,0,0-3.277-1.569H25.8a13.6,13.6,0,0,0-5.278-1.054,13.039,13.039,0,0,0-11.885,6.739,3.148,3.148,0,0,0-2.819.873L.809,230.19a1.054,1.054,0,0,0,0,1.487Zm7.885-23.944a11.506,11.506,0,0,1,4.64.966,1.052,1.052,0,0,0,.423.089H37.557a2.108,2.108,0,1,1,0,4.216h-8.6a1.054,1.054,0,0,0,0,2.108h8.6a4.209,4.209,0,0,0,4.179-4.767c6.016-6.184,6.865-7.053,6.9-7.1a2.108,2.108,0,1,1,3.219,2.724L42.4,229.2a7.339,7.339,0,0,1-5.109,2.055H23.282a5.24,5.24,0,0,0-3.659,1.478l-.9.864-8.257-8.256a10.882,10.882,0,0,1,10.055-5.679ZM7.314,226.651a1.051,1.051,0,0,1,1.305-.148c.182.111-.341-.366,9.129,9.091a1.056,1.056,0,0,1,.006,1.485L13.4,241.371,3.042,230.936Zm0,0" transform="translate(-0.501 -189.935)"/><path class="b" d="M267.962,41.043v1.235a3.162,3.162,0,0,0,1.054,6.143,1.054,1.054,0,0,1,0,2.108,1.906,1.906,0,0,1-1.368-.8,1.054,1.054,0,0,0-1.613,1.357,4.371,4.371,0,0,0,1.928,1.373v1.23a1.054,1.054,0,0,0,2.108,0V52.455a3.162,3.162,0,0,0-1.054-6.143,1.054,1.054,0,0,1,0-2.108,1.692,1.692,0,0,1,1.14.551,1.054,1.054,0,0,0,1.466-1.515,4.072,4.072,0,0,0-1.552-.97V41.043a1.054,1.054,0,1,0-2.108,0Zm0,0" transform="translate(-237.819 -35.773)"/></g></svg>