<svg xmlns="http://www.w3.org/2000/svg" width="52.543" height="52.543" viewBox="0 0 52.543 52.543"><defs><style>.a,.b{fill:#2139ac;}.b,.c{stroke:#fff;}.b{stroke-width:0.7px;}.c{fill:#ff385c;}</style></defs><g transform="translate(0.35 0.35)"><g transform="translate(0)"><circle class="a" cx="2.171" cy="2.171" r="2.171" transform="translate(37.477 18.824)"/><path class="b" d="M43.616,4.038H40.991V2.019a2.019,2.019,0,0,0-4.038,0V4.038H27.765V2.019a2.019,2.019,0,1,0-4.038,0V4.038H14.64V2.019a2.019,2.019,0,1,0-4.038,0V4.038H8.077A8.086,8.086,0,0,0,0,12.115v31.5a8.086,8.086,0,0,0,8.077,8.077H23.524a2.019,2.019,0,1,0,0-4.038H8.077a4.043,4.043,0,0,1-4.038-4.038v-31.5A4.043,4.043,0,0,1,8.077,8.077H10.6V10.1a2.019,2.019,0,1,0,4.038,0V8.077h9.087V10.1a2.019,2.019,0,1,0,4.038,0V8.077h9.188V10.1a2.019,2.019,0,0,0,4.038,0V8.077h2.625a4.043,4.043,0,0,1,4.038,4.038v11.51a2.019,2.019,0,1,0,4.038,0V12.115A8.086,8.086,0,0,0,43.616,4.038Z" transform="translate(0)"/><path class="c" d="M282.216,270a12.216,12.216,0,1,0,12.216,12.216A12.23,12.23,0,0,0,282.216,270Zm0,20.394a8.178,8.178,0,1,1,8.178-8.178A8.187,8.187,0,0,1,282.216,290.394Z" transform="translate(-242.74 -242.74)"/><path class="c" d="M375.947,334.139h-.909v-2.12a2.019,2.019,0,0,0-4.039,0v4.139a2.019,2.019,0,0,0,2.019,2.019h2.928a2.019,2.019,0,0,0,0-4.038Z" transform="translate(-333.543 -296.683)"/><circle class="a" cx="2.171" cy="2.171" r="2.171" transform="translate(28.431 18.824)"/><ellipse class="a" cx="2.166" cy="2.171" rx="2.166" ry="2.171" transform="translate(10.339 18.824)"/><ellipse class="a" cx="2.166" cy="2.171" rx="2.166" ry="2.171" transform="translate(10.339 29.163)"/><ellipse class="a" cx="2.166" cy="2.171" rx="2.166" ry="2.171" transform="translate(10.339 39.501)"/><ellipse class="a" cx="2.166" cy="2.171" rx="2.166" ry="2.171" transform="translate(19.385 18.824)"/><ellipse class="a" cx="2.166" cy="2.171" rx="2.166" ry="2.171" transform="translate(19.385 29.163)"/><ellipse class="a" cx="2.166" cy="2.171" rx="2.166" ry="2.171" transform="translate(19.385 39.501)"/></g></g></svg>