<svg xmlns="http://www.w3.org/2000/svg" width="45.995" height="42.52" viewBox="0 0 45.995 42.52"><g transform="translate(0 -0.124)"><path d="M2132.274,571.076a8.136,8.136,0,1,0-1.749-2.594A8.137,8.137,0,0,0,2132.274,571.076Z" transform="translate(-2101.889 -557.019)" fill="#fb3d4e"/><g transform="translate(0 4.72)"><path d="M1457.379,1226.226a8.9,8.9,0,0,0,.848,2.059c.075.151.154.308.233.47.043.088.175.357,1.246,2.251a.837.837,0,1,0,1.458-.824c-.911-1.611-1.143-2.049-1.2-2.166-.082-.166-.161-.325-.237-.478-.247-.495-.46-.922-.591-1.267a1.53,1.53,0,0,1-.126-.485.523.523,0,0,1,.054-.031s.515-.141,2.154,1.213a35.4,35.4,0,0,1,3.657,3.658.837.837,0,0,0,1.252-1.113,36.441,36.441,0,0,0-3.912-3.895c-1.078-.881-2.655-1.981-3.9-1.363A1.683,1.683,0,0,0,1457.379,1226.226Z" transform="translate(-1445.612 -1216.821)" fill="#646464"/><path d="M945.654,1465.868a14.231,14.231,0,0,0-2.928-1.677,20.249,20.249,0,0,0-7.811-1.706c-7.2,0-18.877.893-23.562,1.277a4.911,4.911,0,0,1-3.646-1.229,16.618,16.618,0,0,0-2.724-1.984,3.312,3.312,0,0,0-2.6-.553,1.244,1.244,0,0,0-.772.752c-.229.6-.07,1.453.516,2.753.207.461.442.918.653,1.309l-.689.267a.837.837,0,0,0-.535.781v2.467a.837.837,0,0,0,.593.8c.075.023,1.864.565,5.058,1.216a108,108,0,0,0,12.3,1.737c-2.053,3.424-4.426,7.4-5.151,8.874q-.119.243-.233.47a8.9,8.9,0,0,0-.848,2.059,1.683,1.683,0,0,0,.938,1.971,1.43,1.43,0,0,0,.645.147,3.122,3.122,0,0,0,1.5-.515,14.99,14.99,0,0,0,2.229-1.714,72.8,72.8,0,0,0,5.364-5.506c1.814-2.025,3.567-4.1,4.868-5.669h7.426a39.773,39.773,0,0,0,7.7-.568,4.98,4.98,0,0,0,3.169-1.581,2.27,2.27,0,0,0,.207-2.129A4.7,4.7,0,0,0,945.654,1465.868Zm-3.6-.143c.417.183.8.369,1.146.556-4.065.679-6.156.016-7.214-.722a3.29,3.29,0,0,1-1.168-1.4h.1A18.516,18.516,0,0,1,942.054,1465.725Zm3.709,3.347c-.116.163-.558.577-2.153.916a38.246,38.246,0,0,1-7.355.531H930.2c.484-.6.768-.952.778-.965a.837.837,0,0,0-1.311-1.043c-.031.039-3.154,3.96-6.594,7.828-2.01,2.261-3.732,4.059-5.116,5.345a19.332,19.332,0,0,1-2.054,1.706,3.063,3.063,0,0,1-.994.524,1.583,1.583,0,0,1,.126-.48c.131-.345.344-.772.591-1.267.076-.153.156-.312.237-.478.745-1.516,3.386-5.918,5.507-9.456.684-1.14,1.33-2.217,1.829-3.06a.837.837,0,1,0-1.441-.854c-.364.614-.807,1.355-1.287,2.155a106.921,106.921,0,0,1-12.9-1.769c-2.083-.423-3.572-.805-4.34-1.014v-1.26l1.051-.408a.837.837,0,0,0,.424-1.2c-.21-.369-.649-1.136-1-1.9a6.682,6.682,0,0,1-.485-1.314,3.93,3.93,0,0,1,.969.415,15.066,15.066,0,0,1,2.415,1.77,6.734,6.734,0,0,0,2.271,1.311,6.446,6.446,0,0,0,2.612.324c4.279-.351,14.409-1.127,21.566-1.253a4.887,4.887,0,0,0,1.971,2.756,8.731,8.731,0,0,0,5.067,1.308,23.293,23.293,0,0,0,5.026-.63,2.367,2.367,0,0,1,.629.849C945.885,1468.854,945.836,1468.97,945.763,1469.072Z" transform="translate(-901.514 -1447.673)" fill="#646464"/><path d="M1096.767,2138.827h-5.54a.837.837,0,1,0,0,1.675h5.54a.837.837,0,0,0,0-1.675Z" transform="translate(-1086.405 -2112.279)" fill="#646464"/><path d="M2149.128,2375.234h-7.2a.837.837,0,1,0,0,1.675h7.2a.837.837,0,1,0,0-1.675Z" transform="translate(-2114.943 -2343.7)" fill="#646464"/><path d="M1825.878,1194.036a.837.837,0,0,0,.837.837h3.324a.837.837,0,0,0,0-1.675h-3.324A.837.837,0,0,0,1825.878,1194.036Z" transform="translate(-1806.382 -1186.596)" fill="#646464"/><path d="M1170.029,1350.8a.837.837,0,1,0,0,1.675h2.216a.837.837,0,0,0,0-1.675Z" transform="translate(-1163.545 -1340.876)" fill="#646464"/><path d="M1621.725,958.467h6.648a.837.837,0,0,0,0-1.675h-6.648a.837.837,0,0,0,0,1.675Z" transform="translate(-1605.715 -955.175)" fill="#646464"/><path d="M2488.387,2191.362H2483.4a.837.837,0,0,0,0,1.675h4.986a.837.837,0,0,0,0-1.675Z" transform="translate(-2449.217 -2163.707)" fill="#646464"/><path d="M1695.655,1786.405h-.277a.837.837,0,0,0,0,1.675h.277a.837.837,0,1,0,0-1.675Z" transform="translate(-1677.815 -1767.291)" fill="#646464"/><path d="M1564.317,1786.405h-.277a.837.837,0,0,0,0,1.675h.277a.837.837,0,0,0,0-1.675Z" transform="translate(-1549.247 -1767.291)" fill="#646464"/><path d="M1432.98,1786.405h-.277a.837.837,0,0,0,0,1.675h.277a.837.837,0,0,0,0-1.675Z" transform="translate(-1420.68 -1767.291)" fill="#646464"/><path d="M969.987,886.95h6.553a2.248,2.248,0,0,0,.029-4.5,3.4,3.4,0,0,0-6.241-.46,2.41,2.41,0,0,0-.341-.024,2.49,2.49,0,0,0,0,4.98Zm0-3.305a.8.8,0,0,1,.418.122.837.837,0,0,0,1.255-.555,1.722,1.722,0,0,1,3.411.268.838.838,0,0,0,1.214.715.556.556,0,0,1,.254-.066.573.573,0,1,1,0,1.146h-6.553a.815.815,0,0,1,0-1.63Z" transform="translate(-966.105 -880.145)" fill="#646464"/></g></g><g transform="translate(32.994 5)"><path d="M173.752,170.272l-2.1-2.1,2.1-2.1a.742.742,0,0,0-1.048-1.049l-2.1,2.1-2.1-2.1a.742.742,0,0,0-1.048,1.049l2.1,2.1-2.1,2.1a.742.742,0,0,0,1.049,1.049l2.1-2.1,2.1,2.1a.742.742,0,1,0,1.048-1.049Z" transform="translate(-167.236 -164.813)" fill="#fff"/></g></svg>