<svg xmlns="http://www.w3.org/2000/svg" width="13.038" height="18" viewBox="0 0 13.038 18"><defs><style>.a{fill:#6b6b6b;}</style></defs><g transform="translate(-262 -131)"><path class="a" d="M77.092,0a6.526,6.526,0,0,0-6.519,6.519c0,4.461,5.834,11.01,6.082,11.286a.587.587,0,0,0,.873,0c.248-.277,6.082-6.825,6.082-11.286A6.526,6.526,0,0,0,77.092,0Zm0,16.514c-1.963-2.332-5.345-6.933-5.345-9.995a5.345,5.345,0,1,1,10.69,0C82.437,9.581,79.056,14.181,77.092,16.514Z" transform="translate(191.427 131)"/><path class="a" d="M165.479,92.134A2.771,2.771,0,1,0,168.25,94.9,2.774,2.774,0,0,0,165.479,92.134Zm0,4.55a1.779,1.779,0,1,1,1.779-1.779A1.781,1.781,0,0,1,165.479,96.684Z" transform="translate(103.04 42.614)"/></g></svg>