<svg xmlns="http://www.w3.org/2000/svg" width="25.456" height="25.456" viewBox="0 0 25.456 25.456"><defs><style>.a{fill:#fb3d4e;}</style></defs><g transform="translate(12.728) rotate(45)"><path class="a" d="M18,2.142A2.12,2.12,0,0,0,15.881,0h-.023a2.1,2.1,0,0,0-1.508.652L11.2,3.935,2.956,1.207.521,3.642l6.89,4.242L4.576,10.838l-2.225-.365L0,12.823l3.834,1.343L5.177,18l2.351-2.351-.365-2.225,2.954-2.835,4.242,6.89,2.435-2.435L14.065,6.8,17.348,3.65A2.1,2.1,0,0,0,18,2.142Zm-1.383.746L12.853,6.5l2.733,8.258-1.03,1.03L10.329,8.922l-4.3,4.125L6.4,15.286l-.78.78-.956-2.728-2.728-.956.78-.78,2.239.368,4.125-4.3L2.212,3.443l1.03-1.03L11.5,5.147l3.612-3.764a1.056,1.056,0,0,1,.757-.327h.011a1.064,1.064,0,0,1,.737,1.832Z"/></g></svg>