<svg xmlns="http://www.w3.org/2000/svg" width="20.012" height="17.964" viewBox="0 0 20.012 17.964"><defs><style>.a{fill:#b2b2b2;stroke:#fff;stroke-width:0.3px;}</style></defs><path class="a" d="M3.868,47.8A3.353,3.353,0,0,1,3,47.688,3.313,3.313,0,0,1,.974,46.132L.086,44.608a.639.639,0,1,1,1.1-.643l.888,1.527a2.057,2.057,0,0,0,2.811.757l10.078-5.81a.234.234,0,0,0,.111-.2.22.22,0,0,0-.088-.195,1.68,1.68,0,0,0-1.933-.108l-2.335,1.381a.639.639,0,0,1-.71-.039l-3.241-2.44a2.79,2.79,0,0,0-1.323-.562.316.316,0,0,0-.3.152.284.284,0,0,0-.019.269l2.09,2.587a.636.636,0,0,1,.057.082A1.6,1.6,0,0,1,6.7,43.56L4,45.156a.639.639,0,0,1-.65-1.1l2.7-1.6.006,0a.327.327,0,0,0,.137-.413L4.1,39.455a.641.641,0,0,1-.057-.082,1.553,1.553,0,0,1,.02-1.609A1.6,1.6,0,0,1,5.517,37a3.951,3.951,0,0,1,1.991.792l.023.017L10.442,40l1.97-1.165.006,0A2.94,2.94,0,0,1,15.727,39a1.519,1.519,0,0,1-.12,2.543L5.529,47.356a3.316,3.316,0,0,1-1.66.447Z" transform="translate(24.141 -31.819) rotate(30)"/></svg>